<svg width="189" height="142" viewBox="0 0 189 142" fill="none" xmlns="http://www.w3.org/2000/svg">
<path d="M106.881 31.1476C109.182 32.1513 111.338 33.2636 113.292 34.4489C120.124 38.5907 125.621 44.6199 132.335 48.7742C138.675 52.6964 146.418 53.6499 153.673 54.3051C166.319 55.448 192.694 66.4088 187.932 86.7229C186.199 94.1158 180.089 99.137 176.961 105.832C173.633 112.953 173.983 121.835 168.684 128.009C166.354 130.723 163.136 132.516 159.833 133.875C137.85 142.909 113.163 142.489 89.8541 141.494C71.4561 140.707 41.9062 144.863 25.7461 134.717C17.7231 129.681 21.8952 115.911 16.3435 108.516C11.6785 102.301 5.32935 98.2198 2.21044 90.4405C-3.09718 77.204 4.46832 59.9789 17.7148 55.2798C25.9924 52.3436 34.7619 50.9984 42.9444 47.7738C51.398 44.4415 54.6553 39.4493 61.1022 33.5415C72.757 22.8613 92.5933 24.9108 106.881 31.1476Z" fill="#19536C" fill-opacity="0.1"/>
<g clip-path="url(#clip0_198_11331)">
<path d="M125.454 100.192C124.912 100.192 124.37 99.9773 123.955 99.553L114.574 89.858C113.749 89.0048 113.749 87.618 114.574 86.7648C115.4 85.9117 116.742 85.9117 117.567 86.7648L126.948 96.4598C127.774 97.313 127.774 98.6998 126.948 99.553C126.538 99.9817 125.996 100.192 125.454 100.192Z" fill="#455A64"/>
<path d="M146.917 131.25C144.093 131.25 141.434 130.113 139.432 128.048L124.615 112.735C122.617 110.666 121.517 107.923 121.517 105C121.517 102.077 122.617 99.3344 124.615 97.265C128.451 93.3013 135.745 93.3013 139.58 97.265L154.397 112.577C156.399 114.647 157.5 117.39 157.5 120.312C157.5 123.235 156.399 125.978 154.401 128.048C152.403 130.117 149.74 131.25 146.917 131.25ZM132.1 98.525C130.377 98.525 128.743 99.19 127.608 100.363C126.41 101.601 125.75 103.25 125.75 105C125.75 106.75 126.41 108.399 127.608 109.642L142.425 124.954C144.825 127.431 149.004 127.431 151.404 124.954C152.606 123.712 153.267 122.062 153.267 120.312C153.267 118.562 152.606 116.913 151.408 115.671L136.592 100.358C135.457 99.19 133.823 98.525 132.1 98.525ZM81.3 105C53.288 105 30.5 81.4494 30.5 52.5C30.5 23.5506 53.288 0 81.3 0C109.312 0 132.1 23.5506 132.1 52.5C132.1 81.4494 109.312 105 81.3 105ZM81.3 4.375C55.6248 4.375 34.7333 25.9656 34.7333 52.5C34.7333 79.0344 55.6248 100.625 81.3 100.625C106.975 100.625 127.867 79.0344 127.867 52.5C127.867 25.9656 106.975 4.375 81.3 4.375Z" fill="#455A64"/>
<path d="M85.5333 65.7169C84.3649 65.7169 83.4166 64.7369 83.4166 63.5294C83.4166 62.3262 82.4683 61.3419 81.2999 61.3419C80.1315 61.3419 79.1833 62.3262 79.1833 63.5294C79.1833 64.7369 78.235 65.7169 77.0666 65.7169C75.8982 65.7169 74.9499 64.7369 74.9499 63.5294C74.9499 59.9112 77.799 56.9669 81.2999 56.9669C84.8009 56.9669 87.6499 59.9112 87.6499 63.5294C87.6499 64.7369 86.7017 65.7169 85.5333 65.7169ZM100.35 59.0625C98.0555 59.0625 96.1166 57.0587 96.1166 54.6875C96.1166 52.3162 98.0555 50.3125 100.35 50.3125C102.644 50.3125 104.583 52.3162 104.583 54.6875C104.583 57.0587 102.644 59.0625 100.35 59.0625ZM62.2499 59.0625C59.9555 59.0625 58.0166 57.0587 58.0166 54.6875C58.0166 52.3162 59.9555 50.3125 62.2499 50.3125C64.5444 50.3125 66.4833 52.3162 66.4833 54.6875C66.4833 57.0587 64.5444 59.0625 62.2499 59.0625Z" fill="#455A64"/>
<path d="M125.454 100.192C124.912 100.192 124.37 99.9773 123.955 99.553L114.574 89.858C113.749 89.0048 113.749 87.618 114.574 86.7648C115.4 85.9117 116.742 85.9117 117.567 86.7648L126.948 96.4598C127.774 97.313 127.774 98.6998 126.948 99.553C126.538 99.9817 125.996 100.192 125.454 100.192Z" fill="#19536C"/>
<path d="M146.917 131.25C144.093 131.25 141.434 130.113 139.432 128.048L124.615 112.735C122.617 110.666 121.517 107.923 121.517 105C121.517 102.077 122.617 99.3344 124.615 97.265C128.451 93.3013 135.745 93.3013 139.58 97.265L154.397 112.577C156.399 114.647 157.5 117.39 157.5 120.312C157.5 123.235 156.399 125.978 154.401 128.048C152.403 130.117 149.74 131.25 146.917 131.25ZM132.1 98.525C130.377 98.525 128.743 99.19 127.608 100.363C126.41 101.601 125.75 103.25 125.75 105C125.75 106.75 126.41 108.399 127.608 109.642L142.425 124.954C144.825 127.431 149.004 127.431 151.404 124.954C152.606 123.712 153.267 122.062 153.267 120.312C153.267 118.562 152.606 116.913 151.408 115.671L136.592 100.358C135.457 99.19 133.823 98.525 132.1 98.525ZM81.3 105C53.288 105 30.5 81.4494 30.5 52.5C30.5 23.5506 53.288 0 81.3 0C109.312 0 132.1 23.5506 132.1 52.5C132.1 81.4494 109.312 105 81.3 105ZM81.3 4.375C55.6248 4.375 34.7333 25.9656 34.7333 52.5C34.7333 79.0344 55.6248 100.625 81.3 100.625C106.975 100.625 127.867 79.0344 127.867 52.5C127.867 25.9656 106.975 4.375 81.3 4.375Z" fill="#19536C"/>
<path d="M85.5333 65.7169C84.3649 65.7169 83.4166 64.7369 83.4166 63.5294C83.4166 62.3262 82.4683 61.3419 81.2999 61.3419C80.1315 61.3419 79.1833 62.3262 79.1833 63.5294C79.1833 64.7369 78.235 65.7169 77.0666 65.7169C75.8982 65.7169 74.9499 64.7369 74.9499 63.5294C74.9499 59.9112 77.799 56.9669 81.2999 56.9669C84.8009 56.9669 87.6499 59.9112 87.6499 63.5294C87.6499 64.7369 86.7017 65.7169 85.5333 65.7169ZM100.35 59.0625C98.0555 59.0625 96.1166 57.0587 96.1166 54.6875C96.1166 52.3162 98.0555 50.3125 100.35 50.3125C102.644 50.3125 104.583 52.3162 104.583 54.6875C104.583 57.0587 102.644 59.0625 100.35 59.0625ZM62.2499 59.0625C59.9555 59.0625 58.0166 57.0587 58.0166 54.6875C58.0166 52.3162 59.9555 50.3125 62.2499 50.3125C64.5444 50.3125 66.4833 52.3162 66.4833 54.6875C66.4833 57.0587 64.5444 59.0625 62.2499 59.0625Z" fill="#19536C"/>
</g>
<defs>
<clipPath id="clip0_198_11331">
<rect width="127" height="132" fill="white" transform="translate(30.5)"/>
</clipPath>
</defs>
</svg>
