<svg width="16" height="16" viewBox="0 0 16 16" fill="none" xmlns="http://www.w3.org/2000/svg">
<path d="M8.5 9.67955H8.65334C8.87334 9.67955 9.06 9.47956 9.06 9.23289C9.06 8.91956 8.98667 8.87956 8.77334 8.80622L8.5 8.71289V9.67955Z" fill="#535A5F"/>
<path d="M7.99992 1.33301C4.31992 1.33301 1.33325 4.31967 1.33325 7.99967C1.33325 11.6797 4.31992 14.6663 7.99992 14.6663C11.6799 14.6663 14.6666 11.6797 14.6666 7.99967C14.6666 4.31967 11.6799 1.33301 7.99992 1.33301ZM5.05324 10.9463C5.24658 11.1397 5.24658 11.4597 5.05324 11.653C4.95324 11.753 4.82658 11.7997 4.69991 11.7997C4.57324 11.7997 4.44658 11.753 4.34658 11.653C3.37324 10.6797 2.83325 9.37967 2.83325 7.99967C2.83325 6.61967 3.37324 5.31967 4.34658 4.34634C4.53991 4.15301 4.85991 4.15301 5.05324 4.34634C5.24658 4.53967 5.24658 4.85968 5.05324 5.05301C4.26658 5.83968 3.83325 6.88634 3.83325 7.99967C3.83325 9.11301 4.26658 10.1597 5.05324 10.9463ZM9.09991 7.85301C9.73991 8.07967 10.0532 8.52634 10.0532 9.22634C10.0532 10.0263 9.42659 10.673 8.64659 10.673H8.49325V10.793C8.49325 11.0663 8.26658 11.293 7.99325 11.293C7.71991 11.293 7.49325 11.0663 7.49325 10.793V10.673H7.47325C6.62658 10.673 5.93325 9.95967 5.93325 9.08634C5.93325 8.81301 6.15991 8.58634 6.43325 8.58634C6.70658 8.58634 6.93325 8.81301 6.93325 9.08634C6.93325 9.41301 7.17325 9.67301 7.47325 9.67301H7.49325V8.35301L6.89325 8.13967C6.25325 7.91301 5.93992 7.46634 5.93992 6.76634C5.93992 5.96634 6.56658 5.31968 7.34658 5.31968H7.49992V5.19968C7.49992 4.92634 7.72659 4.69968 7.99992 4.69968C8.27325 4.69968 8.49992 4.92634 8.49992 5.19968V5.31968H8.51992C9.36658 5.31968 10.0599 6.03301 10.0599 6.90634C10.0599 7.17968 9.83325 7.40634 9.55992 7.40634C9.28658 7.40634 9.05992 7.17968 9.05992 6.90634C9.05992 6.57968 8.81992 6.31968 8.51992 6.31968H8.49992V7.63967L9.09991 7.85301ZM11.6533 11.653C11.5533 11.753 11.4266 11.7997 11.2999 11.7997C11.1733 11.7997 11.0466 11.753 10.9466 11.653C10.7533 11.4597 10.7533 11.1397 10.9466 10.9463C11.7333 10.1597 12.1666 9.11301 12.1666 7.99967C12.1666 6.88634 11.7333 5.83968 10.9466 5.05301C10.7533 4.85968 10.7533 4.53967 10.9466 4.34634C11.1399 4.15301 11.4599 4.15301 11.6533 4.34634C12.6266 5.31967 13.1666 6.61967 13.1666 7.99967C13.1666 9.37967 12.6266 10.6797 11.6533 11.653Z" fill="#535A5F"/>
<path d="M6.94678 6.77365C6.94678 7.08698 7.02011 7.12698 7.23344 7.20031L7.50677 7.29365V6.32031H7.35343C7.12677 6.32031 6.94678 6.52698 6.94678 6.77365Z" fill="#535A5F"/>
</svg>
