<svg width="25" height="24" viewBox="0 0 25 24" fill="none" xmlns="http://www.w3.org/2000/svg">
<path d="M22.8334 8.52V3.98C22.8334 2.57 22.1934 2 20.6034 2H16.5634C14.9734 2 14.3334 2.57 14.3334 3.98V8.51C14.3334 9.93 14.9734 10.49 16.5634 10.49H20.6034C22.1934 10.5 22.8334 9.93 22.8334 8.52Z" fill="#7D7D7D"/>
<path d="M22.8334 19.77V15.73C22.8334 14.14 22.1934 13.5 20.6034 13.5H16.5634C14.9734 13.5 14.3334 14.14 14.3334 15.73V19.77C14.3334 21.36 14.9734 22 16.5634 22H20.6034C22.1934 22 22.8334 21.36 22.8334 19.77Z" fill="#7D7D7D"/>
<path d="M11.3334 8.52V3.98C11.3334 2.57 10.6934 2 9.10337 2H5.06337C3.47337 2 2.83337 2.57 2.83337 3.98V8.51C2.83337 9.93 3.47337 10.49 5.06337 10.49H9.10337C10.6934 10.5 11.3334 9.93 11.3334 8.52Z" fill="#7D7D7D"/>
<path d="M11.3334 19.77V15.73C11.3334 14.14 10.6934 13.5 9.10337 13.5H5.06337C3.47337 13.5 2.83337 14.14 2.83337 15.73V19.77C2.83337 21.36 3.47337 22 5.06337 22H9.10337C10.6934 22 11.3334 21.36 11.3334 19.77Z" fill="#7D7D7D"/>
</svg>
