<svg width="12" height="14" viewBox="0 0 12 14" fill="none" xmlns="http://www.w3.org/2000/svg">
<path d="M11.7467 4.63366C11.0467 1.55366 8.36006 0.166992 6.00006 0.166992C6.00006 0.166992 6.00006 0.166992 5.9934 0.166992C3.64006 0.166992 0.94673 1.54699 0.24673 4.62699C-0.53327 8.06699 1.5734 10.9803 3.48006 12.8137C4.18673 13.4937 5.0934 13.8337 6.00006 13.8337C6.90673 13.8337 7.8134 13.4937 8.5134 12.8137C10.4201 10.9803 12.5267 8.07366 11.7467 4.63366ZM6.00006 7.97366C4.84006 7.97366 3.90006 7.03366 3.90006 5.87366C3.90006 4.71366 4.84006 3.77366 6.00006 3.77366C7.16006 3.77366 8.10006 4.71366 8.10006 5.87366C8.10006 7.03366 7.16006 7.97366 6.00006 7.97366Z" fill="#535A5F"/>
</svg>
