<svg width="14" height="16" viewBox="0 0 14 16" fill="none" xmlns="http://www.w3.org/2000/svg">
<path d="M11.5 4.9029C10.9303 4.9029 10.4164 4.6815 10.0267 4.3251L4.6825 7.4418C4.7239 7.611 4.75 7.7874 4.75 7.9674C4.75 8.1474 4.7239 8.3229 4.6825 8.4921L9.97 11.5782C10.384 11.1882 10.9312 10.9709 11.5 10.9707C12.7411 10.9707 13.75 11.9796 13.75 13.2207C13.75 14.4618 12.7411 15.4707 11.5 15.4707C10.2589 15.4707 9.25 14.4618 9.25 13.2207C9.25 13.0407 9.2761 12.8643 9.3175 12.696L4.03 9.6099C3.61578 9.99956 3.06869 10.2168 2.5 10.2174C1.2589 10.2174 0.25 9.2085 0.25 7.9674C0.25 6.7263 1.2589 5.7174 2.5 5.7174C3.06877 5.71756 3.61603 5.93486 4.03 6.3249L9.3742 3.2082C9.33484 3.04735 9.3146 2.8824 9.3139 2.7168C9.31408 2.28469 9.44237 1.86233 9.68255 1.50311C9.92273 1.14389 10.264 0.863951 10.6633 0.69867C11.0625 0.533389 11.5018 0.490192 11.9256 0.574537C12.3494 0.658882 12.7387 0.866982 13.0443 1.17253C13.3498 1.47809 13.5579 1.86737 13.6423 2.29117C13.7266 2.71498 13.6834 3.15427 13.5181 3.55353C13.3529 3.95278 13.0729 4.29407 12.7137 4.53426C12.3545 4.77444 11.9321 4.90272 11.5 4.9029Z" fill="#535A5F"/>
</svg>
